<svg width="406" height="89" viewBox="0 0 406 89" fill="none" xmlns="http://www.w3.org/2000/svg">
<path d="M7.75 25.5378H3.12C1.4 25.5378 0 26.9378 0 28.6578V40.8978C0 42.6178 1.4 44.0178 3.12 44.0178H35.3C38.05 44.0178 39.76 46.9878 38.39 49.3678L22.3 77.2278C21.44 78.7178 21.95 80.6278 23.44 81.4878L34.04 87.6078C35.53 88.4678 37.44 87.9578 38.3 86.4678L40.61 82.4578C55.22 57.1678 36.96 25.5378 7.75 25.5378Z" fill="#FF646E"/>
<path d="M85.8199 44.0178H53.6399C50.8899 44.0178 49.1799 41.0478 50.5499 38.6678L66.6499 10.7978C67.5099 9.30784 66.9999 7.39784 65.4999 6.53784L54.8999 0.417838C53.4099 -0.442162 51.4999 0.0678382 50.6399 1.55784L48.3299 5.56784C33.7199 30.8678 51.9799 62.4978 81.1999 62.4978H85.8199C87.5399 62.4978 88.9399 61.0978 88.9399 59.3778V47.1378C88.9499 45.4078 87.5499 44.0178 85.8199 44.0178Z" fill="#FF78AA"/>
<path d="M134.4 29.8729C138.86 29.8729 142.7 31.4829 145.83 34.7829L152.43 27.9129V27.9029C147.6 22.7329 141.63 20.1429 134.4 20.1429C127.52 20.1429 121.72 22.4629 116.99 27.0129C112.26 31.5629 109.94 37.1929 109.94 43.9729C109.94 50.7529 112.26 56.4629 116.99 61.0229C121.72 65.5729 127.52 67.8029 134.4 67.8029C141.63 67.8029 147.6 65.2129 152.43 60.0429V60.0329L145.83 53.1629C142.7 56.4629 138.87 58.0729 134.4 58.0729C130.47 58.0729 127.17 56.7329 124.49 54.0529C121.9 51.3729 120.56 47.9829 120.56 43.9729C120.56 39.9529 121.9 36.5629 124.49 33.8829C127.16 31.2029 130.46 29.8729 134.4 29.8729ZM235.52 20.6729C229.09 20.6729 224.01 23.6129 221.86 27.9929V21.5629H211.24V66.5529H221.86V40.6729C221.86 34.5129 226.24 30.2329 232.3 30.2329C238.28 30.2329 241.85 34.0729 241.85 40.2329V66.5629H252.56V38.7029C252.57 27.5429 246.23 20.6729 235.52 20.6729ZM179.33 20.2229C172.45 20.2229 166.65 22.5429 161.92 27.0929C157.19 31.6429 154.78 37.3629 154.78 44.0529C154.78 50.7429 157.19 56.4629 161.92 61.0129C166.65 65.5629 172.45 67.8829 179.33 67.8829C186.21 67.8829 192.01 65.5629 196.74 61.0129C201.47 56.4629 203.88 50.7429 203.88 44.0529C203.88 37.3629 201.47 31.6429 196.74 27.0929C192 22.5529 186.2 20.2229 179.33 20.2229ZM189.23 54.1529C186.56 56.8329 183.25 58.1729 179.32 58.1729C175.3 58.1729 172 56.8329 169.33 54.1529C166.74 51.3829 165.4 48.0829 165.4 44.0629C165.4 40.0429 166.74 36.7429 169.33 34.0629C172 31.2929 175.3 29.9529 179.32 29.9529C183.24 29.9529 186.55 31.2929 189.23 34.0629C191.91 36.7429 193.25 40.0429 193.25 44.0629C193.25 48.0829 191.92 51.3829 189.23 54.1529ZM350.43 21.5629H338.74L329.02 35.0429L319.2 21.5629H307.59L323.12 42.8029L306.07 66.5429H317.59L329.02 50.6529L340.45 66.5429H351.96L334.89 42.7229L350.43 21.5629ZM405.79 58.2529H403.61C401.2 58.2529 400.31 56.8229 400.31 52.9829V21.5629H389.6V28.0829C387.91 23.8029 382.46 20.5829 375.23 20.5829C368.89 20.5829 363.54 22.8129 359.16 27.3629C354.87 31.8229 352.74 37.3629 352.74 44.0529C352.74 50.7429 354.88 56.2829 359.16 60.8329C363.54 65.3829 368.89 67.6129 375.23 67.6129C382.37 67.6129 387.54 65.2929 390.67 60.5629C391.12 62.8829 392.37 64.6729 394.33 66.0129C395.94 66.9929 397.99 67.4429 400.57 67.4429C402.89 67.4429 404.67 67.1729 405.84 66.7329V58.3129C405.84 58.2729 405.82 58.2529 405.79 58.2529ZM386.38 53.8829C383.79 56.4729 380.49 57.8129 376.65 57.8129C372.81 57.8129 369.69 56.4729 367.1 53.8829C364.6 51.2929 363.35 47.9929 363.35 44.0629C363.35 40.1429 364.6 36.8329 367.1 34.2429C369.69 31.6529 372.81 30.3229 376.65 30.3229C380.49 30.3229 383.79 31.6629 386.38 34.2429C389.05 36.8329 390.39 40.1329 390.39 44.0629C390.39 47.9929 389.06 51.2929 386.38 53.8829ZM283.23 20.3229C276.35 20.3229 270.74 22.4629 266.27 26.8429C261.89 31.2129 259.66 36.9229 259.66 44.0729V44.4329C259.66 51.4829 261.89 57.1129 266.27 61.3029C270.64 65.4929 276.45 67.6428 283.5 67.6428C291.09 67.6428 297.33 64.9628 302.41 59.6129V59.6029L295.99 53.3629C292.51 56.8428 288.5 58.5329 283.85 58.5329C275.91 58.5329 270.64 53.8929 270.28 46.7529H305.27C305.36 45.5929 305.45 44.3429 305.45 43.0029C305.45 36.5729 303.4 31.2129 299.2 26.8429C295.1 22.4629 289.75 20.3229 283.23 20.3229ZM270.56 39.2429C270.83 36.4729 272.17 34.1529 274.58 32.2829C276.99 30.4029 279.94 29.4229 283.24 29.4229C286.37 29.4229 288.95 30.4029 291.18 32.3729C293.41 34.2429 294.57 36.5629 294.57 39.2429H270.56Z" fill="#FFFFFA"/>
</svg>
