<svg width="406" height="89" viewBox="0 0 406 89" fill="none" xmlns="http://www.w3.org/2000/svg">
<path d="M7.75 25.5378H3.12C1.4 25.5378 0 26.9378 0 28.6578V40.8978C0 42.6178 1.4 44.0178 3.12 44.0178H35.3C38.05 44.0178 39.76 46.9878 38.39 49.3678L22.3 77.2278C21.44 78.7178 21.95 80.6278 23.44 81.4878L34.04 87.6078C35.53 88.4678 37.44 87.9578 38.3 86.4678L40.61 82.4578C55.22 57.1678 36.96 25.5378 7.75 25.5378Z" fill="#FF646E"/>
<path d="M85.8199 44.0178H53.6399C50.8899 44.0178 49.1799 41.0478 50.5499 38.6678L66.6499 10.7978C67.5099 9.30784 66.9999 7.39784 65.4999 6.53784L54.8999 0.417838C53.4099 -0.442162 51.4999 0.0678382 50.6399 1.55784L48.3299 5.56784C33.7199 30.8678 51.9799 62.4978 81.1999 62.4978H85.8199C87.5399 62.4978 88.9399 61.0978 88.9399 59.3778V47.1378C88.9499 45.4078 87.5499 44.0178 85.8199 44.0178Z" fill="#FF78AA"/>
<path d="M134.4 29.8728C138.86 29.8728 142.7 31.4828 145.83 34.7828L152.43 27.9128V27.9028C147.6 22.7328 141.63 20.1428 134.4 20.1428C127.52 20.1428 121.72 22.4628 116.99 27.0128C112.26 31.5628 109.94 37.1928 109.94 43.9728C109.94 50.7528 112.26 56.4628 116.99 61.0228C121.72 65.5728 127.52 67.8028 134.4 67.8028C141.63 67.8028 147.6 65.2128 152.43 60.0428V60.0328L145.83 53.1628C142.7 56.4628 138.87 58.0728 134.4 58.0728C130.47 58.0728 127.17 56.7328 124.49 54.0528C121.9 51.3728 120.56 47.9828 120.56 43.9728C120.56 39.9528 121.9 36.5628 124.49 33.8828C127.16 31.2028 130.46 29.8728 134.4 29.8728ZM235.52 20.6728C229.09 20.6728 224.01 23.6128 221.86 27.9928V21.5628H211.24V66.5528H221.86V40.6728C221.86 34.5128 226.24 30.2328 232.3 30.2328C238.28 30.2328 241.85 34.0728 241.85 40.2328V66.5628H252.56V38.7028C252.57 27.5428 246.23 20.6728 235.52 20.6728ZM179.33 20.2228C172.45 20.2228 166.65 22.5428 161.92 27.0928C157.19 31.6428 154.78 37.3628 154.78 44.0528C154.78 50.7428 157.19 56.4628 161.92 61.0128C166.65 65.5628 172.45 67.8828 179.33 67.8828C186.21 67.8828 192.01 65.5628 196.74 61.0128C201.47 56.4628 203.88 50.7428 203.88 44.0528C203.88 37.3628 201.47 31.6428 196.74 27.0928C192 22.5528 186.2 20.2228 179.33 20.2228ZM189.23 54.1528C186.56 56.8328 183.25 58.1728 179.32 58.1728C175.3 58.1728 172 56.8328 169.33 54.1528C166.74 51.3828 165.4 48.0828 165.4 44.0628C165.4 40.0428 166.74 36.7428 169.33 34.0628C172 31.2928 175.3 29.9528 179.32 29.9528C183.24 29.9528 186.55 31.2928 189.23 34.0628C191.91 36.7428 193.25 40.0428 193.25 44.0628C193.25 48.0828 191.92 51.3828 189.23 54.1528ZM350.43 21.5628H338.74L329.02 35.0428L319.2 21.5628H307.59L323.12 42.8028L306.07 66.5428H317.59L329.02 50.6528L340.45 66.5428H351.96L334.89 42.7228L350.43 21.5628ZM405.79 58.2528H403.61C401.2 58.2528 400.31 56.8228 400.31 52.9828V21.5628H389.6V28.0828C387.91 23.8028 382.46 20.5828 375.23 20.5828C368.89 20.5828 363.54 22.8128 359.16 27.3628C354.87 31.8228 352.74 37.3628 352.74 44.0528C352.74 50.7428 354.88 56.2828 359.16 60.8328C363.54 65.3828 368.89 67.6128 375.23 67.6128C382.37 67.6128 387.54 65.2928 390.67 60.5628C391.12 62.8828 392.37 64.6728 394.33 66.0128C395.94 66.9928 397.99 67.4428 400.57 67.4428C402.89 67.4428 404.67 67.1728 405.84 66.7328V58.3128C405.84 58.2728 405.82 58.2528 405.79 58.2528ZM386.38 53.8828C383.79 56.4728 380.49 57.8128 376.65 57.8128C372.81 57.8128 369.69 56.4728 367.1 53.8828C364.6 51.2928 363.35 47.9928 363.35 44.0628C363.35 40.1428 364.6 36.8328 367.1 34.2428C369.69 31.6528 372.81 30.3228 376.65 30.3228C380.49 30.3228 383.79 31.6628 386.38 34.2428C389.05 36.8328 390.39 40.1328 390.39 44.0628C390.39 47.9928 389.06 51.2928 386.38 53.8828ZM283.23 20.3228C276.35 20.3228 270.74 22.4628 266.27 26.8428C261.89 31.2128 259.66 36.9228 259.66 44.0728V44.4328C259.66 51.4828 261.89 57.1128 266.27 61.3028C270.64 65.4928 276.45 67.6428 283.5 67.6428C291.09 67.6428 297.33 64.9628 302.41 59.6128V59.6028L295.99 53.3628C292.51 56.8428 288.5 58.5328 283.85 58.5328C275.91 58.5328 270.64 53.8928 270.28 46.7528H305.27C305.36 45.5928 305.45 44.3428 305.45 43.0028C305.45 36.5728 303.4 31.2128 299.2 26.8428C295.1 22.4628 289.75 20.3228 283.23 20.3228ZM270.56 39.2428C270.83 36.4728 272.17 34.1528 274.58 32.2828C276.99 30.4028 279.94 29.4228 283.24 29.4228C286.37 29.4228 288.95 30.4028 291.18 32.3728C293.41 34.2428 294.57 36.5628 294.57 39.2428H270.56Z" fill="#1900AF"/>
</svg>
