<svg width="79" height="78" viewBox="0 0 79 78" fill="none" xmlns="http://www.w3.org/2000/svg">
<g clip-path="url(#clip0_1350_70274)">
<path d="M6.8839 22.6292H2.7713C1.2435 22.6292 0 23.8696 0 25.3937V36.2397C0 37.7638 1.2435 39.0043 2.7713 39.0043H31.3549C33.7975 39.0043 35.3164 41.6361 34.0995 43.745L19.8077 68.4319C19.0439 69.7522 19.4969 71.4447 20.8203 72.2067L30.2357 77.6297C31.5592 78.392 33.2557 77.9397 34.0196 76.6194L36.0714 73.0662C49.0486 50.6567 32.8293 22.6292 6.8839 22.6292Z" fill="#FF646E"/>
<path d="M76.2286 39.0044H47.6451C45.2024 39.0044 43.6835 36.3727 44.9004 34.2638L59.2011 9.56802C59.965 8.24772 59.512 6.55532 58.1796 5.79322L48.7643 0.370217C47.4408 -0.391783 45.7442 0.0601171 44.9803 1.38042L42.9285 4.93372C29.9513 27.3521 46.1706 55.3796 72.125 55.3796H76.2286C77.7564 55.3796 79 54.1391 79 52.615V41.7691C79.009 40.2361 77.7653 39.0044 76.2286 39.0044Z" fill="#FF78AA"/>
</g>
<defs>
<clipPath id="clip0_1350_70274">
<rect width="79" height="78" fill="white"/>
</clipPath>
</defs>
</svg>
